<svg xmlns="http://www.w3.org/2000/svg" width="900" height="1200" viewBox="0 0 900 1200" role="img" aria-labelledby="title desc">
  <title id="title">Sample classroom page about plant parts</title>
  <desc id="desc">A textbook-style page with a simple plant diagram and short notes.</desc>
  <rect width="900" height="1200" fill="#fffdf7"/>
  <rect x="60" y="56" width="780" height="1088" rx="18" fill="#ffffff" stroke="#cfd8cf" stroke-width="4"/>
  <text x="108" y="140" fill="#18322c" font-family="Arial, sans-serif" font-size="54" font-weight="700">Parts of a Plant</text>
  <text x="110" y="200" fill="#52635b" font-family="Arial, sans-serif" font-size="28">Every plant has parts that help it live and grow.</text>
  <line x1="108" y1="232" x2="792" y2="232" stroke="#f2b84b" stroke-width="8"/>

  <rect x="110" y="280" width="310" height="650" rx="18" fill="#eef8f0" stroke="#bbd9c2" stroke-width="3"/>
  <ellipse cx="265" cy="780" rx="115" ry="30" fill="#8f6b43"/>
  <path d="M265 784 C250 850 220 900 172 944" fill="none" stroke="#7a4f2a" stroke-width="12" stroke-linecap="round"/>
  <path d="M265 784 C278 850 312 902 366 946" fill="none" stroke="#7a4f2a" stroke-width="12" stroke-linecap="round"/>
  <path d="M265 784 C263 850 262 904 260 970" fill="none" stroke="#7a4f2a" stroke-width="10" stroke-linecap="round"/>
  <path d="M265 780 C266 620 266 490 268 360" fill="none" stroke="#27835f" stroke-width="24" stroke-linecap="round"/>
  <ellipse cx="204" cy="528" rx="78" ry="34" fill="#4faa6f" transform="rotate(-28 204 528)"/>
  <ellipse cx="332" cy="584" rx="82" ry="34" fill="#4faa6f" transform="rotate(24 332 584)"/>
  <circle cx="268" cy="322" r="58" fill="#d84f72"/>
  <circle cx="220" cy="326" r="42" fill="#e97c95"/>
  <circle cx="315" cy="326" r="42" fill="#e97c95"/>
  <circle cx="268" cy="270" r="42" fill="#e97c95"/>
  <circle cx="268" cy="326" r="30" fill="#f2b84b"/>
  <circle cx="355" cy="700" r="38" fill="#e3a33d"/>
  <text x="448" y="326" fill="#18322c" font-family="Arial, sans-serif" font-size="31" font-weight="700">Roots</text>
  <text x="448" y="370" fill="#52635b" font-family="Arial, sans-serif" font-size="25">Take in water from soil.</text>
  <text x="448" y="466" fill="#18322c" font-family="Arial, sans-serif" font-size="31" font-weight="700">Stem</text>
  <text x="448" y="510" fill="#52635b" font-family="Arial, sans-serif" font-size="25">Holds the plant upright.</text>
  <text x="448" y="606" fill="#18322c" font-family="Arial, sans-serif" font-size="31" font-weight="700">Leaves</text>
  <text x="448" y="650" fill="#52635b" font-family="Arial, sans-serif" font-size="25">Make food using sunlight.</text>
  <text x="448" y="746" fill="#18322c" font-family="Arial, sans-serif" font-size="31" font-weight="700">Flower</text>
  <text x="448" y="790" fill="#52635b" font-family="Arial, sans-serif" font-size="25">Helps make seeds.</text>
  <text x="448" y="886" fill="#18322c" font-family="Arial, sans-serif" font-size="31" font-weight="700">Fruit</text>
  <text x="448" y="930" fill="#52635b" font-family="Arial, sans-serif" font-size="25">Protects seeds.</text>

  <rect x="110" y="990" width="680" height="90" rx="14" fill="#f5f7f2" stroke="#d9ded7"/>
  <text x="142" y="1038" fill="#18322c" font-family="Arial, sans-serif" font-size="28" font-weight="700">Remember:</text>
  <text x="310" y="1038" fill="#52635b" font-family="Arial, sans-serif" font-size="26">roots drink, stems carry, leaves make food.</text>
</svg>
